<svg width="160" height="42" viewBox="0 0 160 42" fill="none" xmlns="http://www.w3.org/2000/svg">
<rect x="0.5" y="0.5" width="159" height="41" rx="9.5" fill="#0B1224" stroke="#2B3550"/>
<path d="M21 11H27.8C33.3 11 36.7 14.2 36.7 19.1C36.7 24.1 33.3 27.3 27.9 27.3H24.3V32H21V11ZM27.6 24.7C31 24.7 33.1 22.9 33.1 19.1C33.1 15.5 31.1 13.6 27.7 13.6H24.3V24.7H27.6Z" fill="#E8EDF5"/>
<path d="M45.1 11H54.6C58.9 11 61.5 13.2 61.5 16.7C61.5 19.2 60.1 21.1 57.8 21.9L61.8 32H58.3L54.8 22.5H48.7V32H45.1V11ZM54.3 19.3C56.7 19.3 58 18.1 58 16.5C58 14.7 56.7 13.6 54.3 13.6H48.7V19.3H54.3Z" fill="#E8EDF5"/>
<path d="M68.2 11H71.8V32H68.2V11Z" fill="#E8EDF5"/>
<path d="M92.6 32H88.9L87.5 27.8H79.6L78.2 32H74.6L81.8 11H85.3L92.6 32ZM86.7 25L83.5 14.9L80.3 25H86.7Z" fill="#E8EDF5"/>
<path d="M99.9 11H103.1L112 25.4V11H115.4V32H112.2L103.2 17.6V32H99.9V11Z" fill="#E8EDF5"/>
<path d="M123.4 11H126.9V24.3C126.9 27.3 128.7 29.2 131.5 29.2C134.3 29.2 136.1 27.3 136.1 24.3V11H139.6V24.2C139.6 29.1 136.5 32.4 131.5 32.4C126.6 32.4 123.4 29.1 123.4 24.2V11Z" fill="#E8EDF5"/>
<path d="M147 11H159.1V13.6H150.6V19H157.6V21.5H150.6V32H147V11Z" fill="#E8EDF5"/>
<circle cx="15" cy="21" r="7" fill="#D7A64A"/>
<circle cx="15" cy="21" r="10.5" stroke="#D7A64A" stroke-width="1.5" stroke-dasharray="2 3"/>
</svg>
